<?xml version="1.0" encoding="iso-8859-1"?>
<!-- Uploaded to: SVG Repo, www.svgrepo.com, Generator: SVG Repo Mixer Tools -->
<svg fill="#000000" version="1.1" id="Capa_1" xmlns="http://www.w3.org/2000/svg" xmlns:xlink="http://www.w3.org/1999/xlink" 
	 viewBox="0 0 512 512" xml:space="preserve">
<g>
	<g>
		<polygon points="226.444,205.026 226.444,194.927 188.735,194.927 188.735,242.734 226.444,242.734 226.444,232.636 
			200.18,232.636 200.18,223.206 225.769,223.206 225.769,213.779 200.18,213.779 200.18,205.026 		"/>
	</g>
</g>
<g>
	<g>
		<rect x="285.71" y="194.93" width="11.448" height="47.14"/>
	</g>
</g>
<g>
	<g>
		<path d="M412.294,297.95c-2.694-2.692-6.734-4.039-12.793-4.039h-6.061c-1.347,0-2.69,0-4.04-0.675
			c-1.347-0.668-2.69-1.342-2.69-3.363c0-1.345,0-2.694,1.343-3.368c1.347-0.674,2.697-0.674,4.716-0.674h20.871v-11.446h-22.219
			c-12.124,0-16.162,7.408-16.162,14.143c0,14.812,12.794,14.139,23.568,14.812c2.019,0,3.368,0.675,4.042,1.347
			c0.674,0.675,1.343,2.016,1.343,3.365c0,1.348-0.669,2.693-1.343,3.367c-1.347,1.348-2.699,1.348-4.714,1.348h-21.551v10.1h21.551
			c11.444,0,17.507-4.717,17.507-14.816C415.662,303.338,414.315,299.971,412.294,297.95z"/>
	</g>
</g>
<g>
	<g>
		<path d="M459.898,305.635c-1.384-7.207-7.558-9.971-9.422-10.645c-2.038-0.716-4.263-1.079-7.207-1.079h-5.387h-0.669
			c-1.349,0-2.697,0-4.04-0.675c-2.023-0.668-2.699-1.342-2.699-3.363c0-1.345,0.676-2.694,1.352-3.368
			c1.347-0.674,2.69-0.674,4.714-0.674h0.674h5.385h14.815v-11.446h-22.221c-1.248,0-2.39,0.097-3.472,0.246
			c-9.032,1.717-12.69,7.497-12.69,13.898c0,14.812,12.796,14.139,23.568,14.812c2.019,0,3.364,0.675,4.038,1.347
			c0.674,0.675,1.347,2.016,1.347,3.365c0,1.348-0.674,2.693-1.347,3.367c-1.343,1.348-2.693,1.348-4.716,1.348H420.38v10.1h21.541
			c6.739,0,11.455-2.02,14.145-4.717c2.693-2.69,4.038-6.057,4.038-10.099C460.104,307.178,460.018,306.391,459.898,305.635z"/>
	</g>
</g>
<g>
	<g>
		<polygon points="369.876,285.156 369.876,275.058 332.167,275.058 332.167,322.868 369.876,322.868 369.876,312.768 
			343.611,312.768 343.611,303.341 369.201,303.341 369.201,293.911 343.611,293.911 343.611,285.156 		"/>
	</g>
</g>
<g>
	<g>
		<path d="M503.916,153.88c4.466,0,8.084-3.618,8.084-8.084v-31.459c0-20.619-16.774-37.394-37.393-37.394H37.393
			C16.775,76.942,0,93.716,0,114.336v283.326c0,20.62,16.775,37.395,37.393,37.395h437.214c20.619,0,37.393-16.775,37.393-37.395
			V172.026c0-4.466-3.618-8.084-8.084-8.084c-4.466,0-8.084,3.618-8.084,8.084v225.637c0,11.705-9.522,21.227-21.225,21.227H37.393
			c-11.704,0-21.225-9.522-21.225-21.227V114.336c0-11.704,9.521-21.226,21.225-21.226h437.214c11.703,0,21.225,9.522,21.225,21.226
			v31.459C495.832,150.261,499.45,153.88,503.916,153.88z"/>
	</g>
</g>
<g>
	<g>
		<path d="M161.797,194.927l-13.467,32.321l-0.216,0.698l-6.101-13.854l-8.496-18.491h-0.025l-0.317-0.675h-13.801h-4.039v45.115
			l-18.853-45.114H79.648l-19.922,47.138h11.836l2.478-5.311l2.236-4.79h22.898l4.714,10.101h22.893v-37.039l16.16,37.038h5.827
			v0.001h3.601h0.496l15.665-35.511v0.018l0.675-1.545v33v4.038h4.039h6.736v-47.138H161.797z M80.318,221.86l7.409-18.854
			l7.406,18.854H80.318z"/>
	</g>
</g>
<g>
	<g>
		<path d="M417.006,195.599v32.994l-19.527-32.994h-16.833v26.26v1.345v15.209v2.301l-4.964-11.879l-13.893-33.237H351.69h-6.735
			l-13.903,33.247l-1.586,3.79h-4.714c-3.364,0-6.057-0.674-8.08-2.697c-2.69-2.693-3.366-6.059-3.366-11.447
			c0-4.713,1.347-8.753,3.366-10.771c2.697-2.023,4.716-2.695,8.756-2.695h9.823h0.952v-2.22v-7.88h-10.775
			c-7.405,0.002-13.468,1.345-16.833,5.388c-4.716,5.385-6.059,12.123-6.059,18.857c0,8.753,2.017,14.14,6.059,18.18
			c4.039,4.038,10.776,5.383,16.159,5.383h12.796l4.04-10.771h23.57l1.962,4.906l2.078,5.195h11.446v0.028h11.377v-6.161l0.069,0.07
			v-29.629l21.547,35.691h14.817v-46.463H417.006z M345.631,221.859l8.079-18.854l7.411,18.854H345.631z"/>
	</g>
</g>
<g>
	<g>
		<path d="M277.595,231.421c0-0.037-0.004-0.069-0.004-0.107c-0.004-0.064-0.009-0.127-0.011-0.191
			c-0.009-0.516-0.038-1.004-0.083-1.474c-0.012-0.127-0.03-0.245-0.045-0.37c-0.04-0.346-0.086-0.686-0.146-1.008
			c-0.021-0.111-0.044-0.217-0.065-0.326c-0.07-0.337-0.148-0.662-0.236-0.972c-0.019-0.068-0.037-0.135-0.057-0.202
			c-0.111-0.37-0.232-0.723-0.364-1.055c-0.391-0.977-0.87-1.804-1.392-2.489c-0.185-0.259-0.404-0.528-0.659-0.798
			c-0.019-0.015-0.042-0.026-0.059-0.041c-2.017-2.096-4.261-2.549-4.261-2.549c3.307-1.326,7.907-5.258,8.064-12.424
			c-0.078-5.203-2.07-8.49-5.37-10.471c-3.368-2.02-7.411-2.02-13.467-2.02h-25.59v32.295v14.844h11.445v-10.091h-0.001v-6.741
			h12.123c3.174,0,5.091,0.011,6.099,0.664c0.698,0.297,1.343,0.718,1.979,1.354c0.848,1.129,1.328,2.495,1.615,3.899
			c0,0.001,0,0.001,0,0.002c0.296,1.457,0.382,2.946,0.4,4.264c0,0.006,0,0.013,0,0.019c0.006,0.434,0.009,0.856,0.009,1.243v5.389
			h10.099v-9.427c0-0.41-0.011-0.788-0.025-1.159C277.593,231.458,277.595,231.442,277.595,231.421z M265.394,213.838
			c-0.15,0.273-0.331,0.511-0.526,0.721c-0.091,0.105-0.157,0.177-0.157,0.177l-0.004-0.009c-0.17,0.157-0.354,0.298-0.556,0.4
			c-1.347,0.675-3.368,0.675-5.387,0.675h-13.47v-10.776h13.47c2.019,0,4.04,0,5.387,0.672c0.857,0.431,1.712,1.139,2.046,2.293
			l0.004-0.001c0.017,0.055,0.015,0.102,0.027,0.156c0.046,0.196,0.084,0.397,0.101,0.614
			C266.706,211.133,266.005,212.87,265.394,213.838z"/>
	</g>
</g>
<g>
	<g>
		<path d="M484.354,309.405c0-5.652-1.2-11.465-3.366-16.568v-26.53c0-0.335-0.011-0.67-0.029-1.001v-1.022
			c0-8.929-7.24-16.168-16.168-16.168h-10.065v-62.617c0-8.929-7.238-16.168-16.168-16.168h-30.304
			c-0.687,0-1.362,0.043-2.025,0.125c-0.663-0.083-1.334-0.125-2.015-0.125h-31.646c-0.687,0-1.362,0.043-2.025,0.125
			c-0.663-0.082-1.337-0.125-2.017-0.125H325.43c-4.501,0-8.733,0.395-12.741,1.195c-1.886-0.771-3.949-1.195-6.114-1.195h-30.303
			c-1.686,0-3.313,0.259-4.844,0.737c-2.529-0.49-5.181-0.737-7.949-0.737H155.066c-2.631,0-5.162,0.639-7.408,1.797
			c-2.246-1.159-4.777-1.797-7.408-1.797h-24.242h-10.101c-0.57,0-1.133,0.029-1.688,0.087c-0.554-0.058-1.115-0.087-1.679-0.087
			h-0.674H72.912c-6.482,0-12.339,3.872-14.877,9.837l-13.401,31.491l-15.415,34.185c-0.056,0.122-0.11,0.247-0.162,0.371
			l-0.285,0.675c-2.103,4.992-1.566,10.706,1.43,15.219c2.995,4.512,8.053,7.225,13.47,7.225h0.285H78.3h0.43
			c3.091,0,6.033-0.879,8.539-2.439c2.508,1.56,5.45,2.439,8.539,2.439h25.581v3.294v60.673c0,8.929,7.238,16.168,16.168,16.168
			h59.257c3.264,0,6.426-0.987,9.089-2.796c2.655,1.804,5.815,2.796,9.089,2.796h0.675h34.144h1.548h0.674h0.67
			c3.315,0,6.396-0.997,8.961-2.709c2.735,2.12,6.169,3.381,9.895,3.381h30.305c0.568,0,1.129-0.029,1.683-0.086
			c0.554,0.057,1.113,0.086,1.682,0.086h91.579c2.596,0,6.185-0.184,10.086-0.924c1.688,0.598,3.507,0.924,5.402,0.924h28.955
			c6.779,0,16.676-0.613,24.789-5.859c10.476-6.42,17.065-17.377,18.15-30.173c0.038-0.304,0.071-0.608,0.099-0.916
			c0.059-0.667,0.078-1.333,0.055-1.996C484.349,309.945,484.354,309.682,484.354,309.405z M134.861,244.083v4.275v3.13v0.675h-7.98
			H95.808l-4.04-10.774h-8.754l-4.041,10.099l-0.244,0.675h-0.43H43.957h-0.285l0.285-0.675l15.486-34.342l13.469-31.648h28.954
			h0.674l3.367,8.081v-8.081h10.101h24.242l7.406,16.835l7.411-16.835H263.48c5.389,0,9.427,1.348,12.794,4.041v-3.367v-0.674
			h30.303v4.041c5.385-2.693,11.448-4.041,18.855-4.041h43.094l4.042,8.081v-8.081h31.646l4.04,8.081v-8.081h30.303v62.617v3.374
			h-29.629h-0.674h-1.343l-6.063-10.099v3.366v3.359v3.374H361.79l-4.04-10.771h-9.425l-4.04,10.771h-20.202
			c-8.082,0-14.139-2.017-18.181-4.04v0.666v3.374h-48.484v-3.361v-11.453c0-2.021,0-2.021-1.345-2.021h-1.347v13.461v4.049h-0.675
			h-77.44h-15.487v-0.675v-3.374v-4.031l-3.366,8.08h-19.526L134.861,244.083z M468.102,311.445
			c-0.581,7.854-4.488,14.436-10.688,18.157c-4.038,2.696-10.103,3.368-16.162,3.368h-28.957v-1.35v-2.694
			c-3.368,2.694-9.425,4.043-15.488,4.043h-91.579v-1.35V317.48c0-2.02,0-2.02-2.021-2.02h-1.343v16.159v1.35h-30.305v-1.35v-16.833
			c-4.711,2.023-10.775,2.023-15.486,2.023h-3.37v8.754v6.734h-0.67h-0.674h-1.548h-9.72h-17.836h-6.587h-0.675l-8.44-9.74
			l-9.738,9.74h-59.257v-60.673v-3.328v-1.991v-2.023h53.195h4.588h2.819l8.755,10.102l9.429-10.102h40.398
			c3.758,0,11.008,0.586,14.711,3.374c0,0,0,0,0.001,0c0.279,0.21,0.542,0.429,0.778,0.665v-0.665v-1.351v-2.023h36.364
			c3.364,0,10.775,0.675,14.815,4.039v-0.682v-1.333v-2.023h55.213v3.374v0.665c2.699-2.69,8.756-4.039,13.469-4.039h30.977v3.374
			v0.665c0,0,0.02-0.017,0.061-0.047c0.002-0.002,0.004-0.004,0.006-0.005c0.124-0.095,0.417-0.316,0.838-0.608
			c0.002-0.002,0.004-0.003,0.006-0.004c1.651-1.146,5.262-3.374,8.383-3.374c1.939,0,9.007,0,16.051,0c8.204,0,16.374,0,16.374,0
			v2.023h0.029v30.301c2.021,3.366,3.366,8.081,3.366,12.795c0,0.44-0.019,0.872-0.04,1.306l0.041,0.039
			C468.164,310.98,468.131,311.213,468.102,311.445z"/>
	</g>
</g>
<g>
	<g>
		<path d="M275.037,284.491c-2.936-7.047-10.692-8.757-17.621-8.757h-35.688l-14.142,15.486l-0.342,0.354l-2.514-2.742
			l-11.958-13.098h-43.77v47.136h43.096l14.813-15.49l0.628,0.724l0.045-0.05l12.882,14.816h22.133v-7.408h0.001v-4.041v-4.042
			v-2.016h13.469c10.097,0,19.526-2.696,19.526-16.163C275.595,287.438,275.389,285.887,275.037,284.491z M186.713,313.443h-27.607
			V303.34h6.066h18.849v-9.429h-18.849h-6.066v-8.755h28.281l12.121,14.143L186.713,313.443z M231.157,318.824l-17.509-19.525
			l17.509-18.856V318.824z M257.417,297.278h-14.815v-12.121h14.139c4.042,0,6.737,2.023,7.411,6.063
			C264.152,295.258,261.457,297.278,257.417,297.278z"/>
	</g>
</g>
<g>
	<g>
		<path d="M325.375,311.68c-0.015-0.257-0.031-0.509-0.053-0.752c-0.017-0.181-0.033-0.359-0.053-0.534
			c-0.022-0.189-0.046-0.37-0.071-0.551c-0.027-0.196-0.054-0.395-0.086-0.582c-0.015-0.091-0.036-0.175-0.053-0.263
			c-0.152-0.799-0.347-1.528-0.594-2.191c-0.012-0.031-0.023-0.065-0.036-0.096c-0.088-0.231-0.181-0.456-0.28-0.673
			c-0.221-0.48-0.462-0.933-0.738-1.35c-0.674-1.347-2.695-2.698-6.063-4.04c3.369-1.348,8.082-5.389,8.082-12.794
			c0-5.387-2.693-8.755-6.059-10.777c-3.371-2.018-8.084-2.018-13.469-2.018h-25.501h-0.086v0.094v32.134v15.583h11.446v-10.128
			v-7.379h12.12c4.04,0,6.737,0,8.08,2.016c2.023,2.023,2.023,6.734,2.023,9.432v6.059h11.446v-9.425
			c0-0.456-0.013-0.89-0.029-1.315C325.393,311.976,325.384,311.829,325.375,311.68z M313.308,291.219
			c0,2.017-0.674,4.039-2.021,4.714c-1.343,0.674-3.366,0.674-5.385,0.674h-13.469v-10.776h13.469c2.019,0,4.042,0,5.385,0.674
			C312.635,287.18,313.983,288.529,313.308,291.219z"/>
	</g>
</g>
</svg>