<svg width="20" height="20" viewBox="0 0 20 20" fill="none" xmlns="http://www.w3.org/2000/svg">
<path d="M9.99998 0.833496C4.93998 0.833496 0.833313 4.94016 0.833313 10.0002C0.833313 15.0602 4.93998 19.1668 9.99998 19.1668C15.06 19.1668 19.1666 15.0602 19.1666 10.0002C19.1666 4.94016 15.06 0.833496 9.99998 0.833496ZM11.2925 15.5827V17.3335H8.84498V15.5643C7.27748 15.2343 5.94831 14.226 5.84748 12.4477H7.64415C7.73581 13.4102 8.39581 14.1618 10.0733 14.1618C11.87 14.1618 12.2733 13.2635 12.2733 12.7043C12.2733 11.9435 11.87 11.2285 9.82581 10.7427C7.55248 10.1927 5.99415 9.25766 5.99415 7.3785C5.99415 5.80183 7.26831 4.77516 8.84498 4.436V2.66683H11.2925V4.45433C12.9975 4.86683 13.85 6.15933 13.905 7.56183H12.1083C12.0625 6.54433 11.5216 5.84766 10.0733 5.84766C8.69831 5.84766 7.87331 6.471 7.87331 7.351C7.87331 8.121 8.46915 8.62516 10.3208 9.10183C12.1725 9.5785 14.1525 10.376 14.1525 12.686C14.1433 14.3635 12.8875 15.2802 11.2925 15.5827Z" fill="#1E96FF"/>
</svg>
