<svg width="89" height="89" viewBox="0 0 89 89" fill="none" xmlns="http://www.w3.org/2000/svg">
<path d="M44.5 38.2221C49.4911 38.2221 53.6812 41.6041 54.8649 46.177C56.353 51.9103 56.1519 58.1937 62.6934 61.4565C68.4997 63.4323 70.6963 65.9154 70.6963 72.5726C70.6963 77.8859 66.1501 83.5338 60.2886 84.2387C53.7346 85.223 48.6332 83.9361 44.4982 81.5794C40.3633 83.9361 35.26 85.2248 28.715 84.2387C22.8499 83.5338 18.3055 77.8663 18.3055 72.5726C18.3055 66.0578 20.6498 63.3006 26.4455 61.412C33.5779 57.7683 32.6203 51.3817 34.2116 45.8957C34.8658 43.6759 36.2222 41.7282 38.0772 40.3446C39.9322 38.961 42.1859 38.2163 44.5 38.2221ZM77.1755 34.2634C75.4079 32.7273 68.1936 38.7241 65.9241 41.6896C64.5446 43.272 63.6866 45.4472 63.6866 47.8466C63.6866 52.6722 67.1398 56.5846 71.3887 56.5846C74.6212 56.5846 77.3873 54.3365 78.5318 51.1396C80.755 45.3902 80.8779 37.4781 77.1755 34.2634ZM11.821 34.2634C8.12393 37.4781 8.24319 45.3902 10.47 51.1396C11.6145 54.3365 14.3788 56.5846 17.6095 56.5846C21.862 56.5846 25.3116 52.6722 25.3116 47.8466C25.3116 45.4472 24.4554 43.272 23.0759 41.6896C20.8046 38.7241 13.5921 32.7273 11.821 34.2634ZM53.9963 2.74495C71.9529 5.79231 70.6927 36.0345 56.3156 33.5977C52.1682 32.8928 49.0888 29.1157 48.6207 24.6034C48.1454 20.0145 47.0757 1.57371 53.9963 2.74495ZM35.0037 2.74495C41.9261 1.57193 40.8546 20.0127 40.3793 24.6016C39.9112 29.1157 36.8353 32.891 32.6879 33.5959C18.3073 36.0363 17.0488 5.79231 35.0037 2.74495Z" fill="black"/>
</svg>
