<svg width="100" height="100" viewBox="0 0 100 100" fill="none" xmlns="http://www.w3.org/2000/svg">
<path d="M50 42.9456C55.608 42.9456 60.316 46.7456 61.646 51.8836C63.318 58.3256 63.092 65.3856 70.442 69.0516C76.966 71.2716 79.434 74.0616 79.434 81.5416C79.434 87.5116 74.326 93.8576 67.74 94.6496C60.376 95.7556 54.644 94.3096 49.998 91.6616C45.352 94.3096 39.618 95.7576 32.264 94.6496C25.674 93.8576 20.568 87.4896 20.568 81.5416C20.568 74.2216 23.202 71.1236 29.714 69.0016C37.728 64.9076 36.652 57.7316 38.44 51.5676C39.1751 49.0735 40.6991 46.885 42.7834 45.3304C44.8676 43.7758 47.3998 42.9391 50 42.9456ZM86.714 38.4976C84.728 36.7716 76.622 43.5096 74.072 46.8416C72.522 48.6196 71.558 51.0636 71.558 53.7596C71.558 59.1816 75.438 63.5776 80.212 63.5776C83.844 63.5776 86.952 61.0516 88.238 57.4596C90.736 50.9996 90.874 42.1096 86.714 38.4976ZM13.282 38.4976C9.12801 42.1096 9.26201 50.9996 11.764 57.4596C13.05 61.0516 16.156 63.5776 19.786 63.5776C24.564 63.5776 28.44 59.1816 28.44 53.7596C28.44 51.0636 27.478 48.6196 25.928 46.8416C23.376 43.5096 15.272 36.7716 13.282 38.4976ZM60.67 3.0836C80.846 6.5076 79.43 40.4876 63.276 37.7496C58.616 36.9576 55.156 32.7136 54.63 27.6436C54.096 22.4876 52.894 1.7676 60.67 3.0836ZM39.33 3.0836C47.108 1.7656 45.904 22.4856 45.37 27.6416C44.844 32.7136 41.388 36.9556 36.728 37.7476C20.57 40.4896 19.156 6.5076 39.33 3.0836Z" fill="#1E96FF"/>
</svg>
