<svg width="22" height="22" viewBox="0 0 22 22" fill="none" xmlns="http://www.w3.org/2000/svg">
<path d="M18.3327 0.917969V3.66797H21.0827V5.5013H18.3327V8.2513H16.4993V5.5013H13.7493V3.66797H16.4993V0.917969H18.3327ZM10.9993 11.918C12.0077 11.918 12.8327 11.093 12.8327 10.0846C12.8327 9.0763 12.0077 8.2513 10.9993 8.2513C9.99102 8.2513 9.16602 9.0763 9.16602 10.0846C9.16602 11.093 9.99102 11.918 10.9993 11.918ZM12.8327 2.98047V6.41797H15.5827V9.16797H18.2593C18.3052 9.52547 18.3327 9.89214 18.3327 10.268C18.3327 13.3113 15.8852 16.9138 10.9993 21.0846C6.11352 16.9138 3.66602 13.3113 3.66602 10.268C3.66602 5.70297 7.14935 2.7513 10.9993 2.7513C11.6227 2.7513 12.2368 2.82464 12.8327 2.98047Z" fill="#1E96FF"/>
</svg>
