<svg width="22" height="22" viewBox="0 0 22 22" fill="none" xmlns="http://www.w3.org/2000/svg">
<path d="M17.416 14.668V17.418M17.416 17.418V20.168M17.416 17.418H14.666M17.416 17.418H20.166" stroke="#1E96FF" stroke-linecap="round" stroke-linejoin="round"/>
<path fill-rule="evenodd" clip-rule="evenodd" d="M11.0007 1.83203C5.9379 1.83203 1.83398 5.93595 1.83398 10.9987C1.83398 16.0614 5.9379 20.1654 11.0007 20.1654C11.5387 20.1654 12.0649 20.1195 12.5773 20.0306C12.1427 19.2275 11.9158 18.3285 11.9173 17.4154C11.9173 15.8149 12.6012 14.3739 13.692 13.3692L11.6038 12.3251C11.1471 12.0967 10.7631 11.7456 10.4946 11.3112C10.2262 10.8769 10.084 10.3763 10.084 9.8657V6.41536C10.084 6.17225 10.1806 5.93909 10.3525 5.76718C10.5244 5.59528 10.7575 5.4987 11.0007 5.4987C11.2438 5.4987 11.4769 5.59528 11.6488 5.76718C11.8207 5.93909 11.9173 6.17225 11.9173 6.41536V9.8657C11.9174 10.0359 11.9649 10.2027 12.0544 10.3474C12.1439 10.4922 12.272 10.6091 12.4242 10.6852L15.0771 12.0125C15.2137 12.0804 15.3255 12.1775 15.4089 12.293C16.0488 12.0425 16.7301 11.9144 17.4173 11.9154C18.3642 11.9154 19.2543 12.1537 20.0326 12.5754C20.1222 12.0546 20.1673 11.5271 20.1673 10.9987C20.1673 5.93595 16.0634 1.83203 11.0007 1.83203Z" fill="#1E96FF"/>
</svg>
