<?xml version="1.0" encoding="iso-8859-1"?>
<!-- Uploaded to: SVG Repo, www.svgrepo.com, Generator: SVG Repo Mixer Tools -->
<!DOCTYPE svg PUBLIC "-//W3C//DTD SVG 1.1//EN" "http://www.w3.org/Graphics/SVG/1.1/DTD/svg11.dtd">
<svg fill="#000000" height="800px" width="800px" version="1.1" id="Capa_1" xmlns="http://www.w3.org/2000/svg" xmlns:xlink="http://www.w3.org/1999/xlink" 
	 viewBox="0 0 444.539 444.539" xml:space="preserve">
<g>
	<path d="M443.96,238.191c-0.888-2.354-2.72-4.229-5.054-5.17l-40.104-16.18c-2.449-12.946-12.287-23.311-24.947-26.528
		l-2.169-24.992c-0.31-3.565-2.702-6.608-6.093-7.75c-3.39-1.143-7.137-0.167-9.541,2.484l-10.492,11.572l-6.437-22.531
		c-1.069-3.741-4.42-6.372-8.309-6.52c-3.896-0.165-7.431,2.216-8.784,5.864l-12.536,33.808c-3.022-3.625-6.233-7.124-9.629-10.486
		c-27.234-26.965-63.303-42.142-101.87-42.941c-0.256-0.022-3.739-0.022-3.999,0.001c-38.523,0.811-74.597,16.176-101.894,43.473
		c-25.926,25.926-41.077,59.774-43.23,96.114H23.667C10.617,268.405,0,279.022,0,292.072c0,13.049,10.617,23.666,23.667,23.666H147
		c4.971,0,9-4.029,9-9s-4.029-9-9-9H23.667c-3.125,0-5.667-2.542-5.667-5.666c0-3.125,2.542-5.667,5.667-5.667
		c0,0,92.296,0,182.876,0.001c-0.644-21.57-32.174-22.575-33.531-22.607c-3.363-0.079-6.413-2.027-7.888-5.05
		c-1.476-3.023-1.154-6.617,0.853-9.316c17.884-24.063,11.143-43.524,10.847-44.341l16.82-6.409c0.395,1.02,8.3,22.258-5.448,49.063
		c16.896,4.015,36.009,14.899,36.361,38.661c80.455,0,154.536,0,154.934,0c26.894,0,51.267-15.507,64.089-40.995
		C444.71,243.163,444.848,240.545,443.96,238.191z"/>
</g>
</svg>